<control>


default_path=Brass\Trumpet\stac\


<global>




ampeg_attack=0.001


ampeg_release=2


ampeg_dynamic=1




volume=0




<group> //Begin Group 1




lorand=0.0 hirand=0.5


group_label=gr_1






<region>
sample=Sum_SHTrumpet_stac_A#3_v1_rr1.wav
lokey=69
hikey=71
pitch_keycenter=70
lovel=0
hivel=41
volume=23


<region>
sample=Sum_SHTrumpet_stac_A2_v1_rr1.wav
lokey=55
hikey=58
pitch_keycenter=57
lovel=0
hivel=41
volume=23


<region>
sample=Sum_SHTrumpet_stac_A4_v1_rr1.wav
lokey=79
hikey=82
pitch_keycenter=81
lovel=0
hivel=41
volume=23


<region>
sample=Sum_SHTrumpet_stac_C3_v1_rr1.wav
lokey=59
hikey=61
pitch_keycenter=60
lovel=0
hivel=41
volume=23


<region>
sample=Sum_SHTrumpet_stac_C5_v1_rr1.wav
lokey=83
hikey=84
pitch_keycenter=84
lovel=0
hivel=41
volume=23


<region>
sample=Sum_SHTrumpet_stac_D#3_v1_rr1.wav
lokey=62
hikey=63
pitch_keycenter=63
lovel=0
hivel=41
volume=23


<region>
sample=Sum_SHTrumpet_stac_D4_v1_rr1.wav
lokey=72
hikey=75
pitch_keycenter=74
lovel=0
hivel=41
volume=23


<region>
sample=Sum_SHTrumpet_stac_F2_v1_rr1.wav
lokey=52
hikey=54
pitch_keycenter=53
lovel=0
hivel=41
volume=23


<region>
sample=Sum_SHTrumpet_stac_F3_v1_rr1.wav
lokey=64
hikey=65
pitch_keycenter=65
lovel=0
hivel=41
volume=23


<region>
sample=Sum_SHTrumpet_stac_F4_v1_rr1.wav
lokey=76
hikey=78
pitch_keycenter=77
lovel=0
hivel=41
volume=23


<region>
sample=Sum_SHTrumpet_stac_G3_v1_rr1.wav
lokey=66
hikey=68
pitch_keycenter=67
lovel=0
hivel=41
volume=23


<region>
sample=Sum_SHTrumpet_stac_A#3_v2_rr1.wav
lokey=69
hikey=71
pitch_keycenter=70
lovel=42
hivel=83
volume=14


<region>
sample=Sum_SHTrumpet_stac_A2_v2_rr1.wav
lokey=55
hikey=58
pitch_keycenter=57
lovel=42
hivel=83
volume=14


<region>
sample=Sum_SHTrumpet_stac_A4_v2_rr1.wav
lokey=79
hikey=82
pitch_keycenter=81
lovel=42
hivel=83
volume=14


<region>
sample=Sum_SHTrumpet_stac_C3_v2_rr1.wav
lokey=59
hikey=61
pitch_keycenter=60
lovel=42
hivel=83
volume=14


<region>
sample=Sum_SHTrumpet_stac_C5_v2_rr1.wav
lokey=83
hikey=84
pitch_keycenter=84
lovel=42
hivel=83
volume=14


<region>
sample=Sum_SHTrumpet_stac_D#3_v2_rr1.wav
lokey=62
hikey=63
pitch_keycenter=63
lovel=42
hivel=83
volume=14


<region>
sample=Sum_SHTrumpet_stac_D4_v2_rr1.wav
lokey=72
hikey=75
pitch_keycenter=74
lovel=42
hivel=83
volume=14


<region>
sample=Sum_SHTrumpet_stac_F2_v2_rr1.wav
lokey=52
hikey=54
pitch_keycenter=53
lovel=42
hivel=83
volume=14


<region>
sample=Sum_SHTrumpet_stac_F3_v2_rr1.wav
lokey=64
hikey=65
pitch_keycenter=65
lovel=42
hivel=83
volume=14


<region>
sample=Sum_SHTrumpet_stac_F4_v2_rr1.wav
lokey=76
hikey=78
pitch_keycenter=77
lovel=42
hivel=83
volume=14


<region>
sample=Sum_SHTrumpet_stac_G3_v2_rr1.wav
lokey=66
hikey=68
pitch_keycenter=67
lovel=42
hivel=83
volume=14


<region>
sample=Sum_SHTrumpet_stac_A#3_v3_rr1.wav
lokey=69
hikey=71
pitch_keycenter=70
lovel=84
hivel=127
volume=5


<region>
sample=Sum_SHTrumpet_stac_A2_v3_rr1.wav
lokey=55
hikey=58
pitch_keycenter=57
lovel=84
hivel=127
volume=5


<region>
sample=Sum_SHTrumpet_stac_A4_v3_rr1.wav
lokey=79
hikey=82
pitch_keycenter=81
lovel=84
hivel=127
volume=5


<region>
sample=Sum_SHTrumpet_stac_C3_v3_rr1.wav
lokey=59
hikey=61
pitch_keycenter=60
lovel=84
hivel=127
volume=5


<region>
sample=Sum_SHTrumpet_stac_C5_v3_rr1.wav
lokey=83
hikey=84
pitch_keycenter=84
lovel=84
hivel=127
volume=5


<region>
sample=Sum_SHTrumpet_stac_D#3_v3_rr1.wav
lokey=62
hikey=63
pitch_keycenter=63
lovel=84
hivel=127
volume=5


<region>
sample=Sum_SHTrumpet_stac_D4_v3_rr1.wav
lokey=72
hikey=75
pitch_keycenter=74
lovel=84
hivel=127
volume=5


<region>
sample=Sum_SHTrumpet_stac_F2_v3_rr1.wav
lokey=52
hikey=54
pitch_keycenter=53
lovel=84
hivel=127
volume=5


<region>
sample=Sum_SHTrumpet_stac_F3_v3_rr1.wav
lokey=64
hikey=65
pitch_keycenter=65
lovel=84
hivel=127
volume=5


<region>
sample=Sum_SHTrumpet_stac_F4_v3_rr1.wav
lokey=76
hikey=78
pitch_keycenter=77
lovel=84
hivel=127
volume=5


<region>
sample=Sum_SHTrumpet_stac_G3_v3_rr1.wav
lokey=66
hikey=68
pitch_keycenter=67
lovel=84
hivel=127
volume=5


<group> //Begin Group 2




lorand=0.5 hirand=1.0


group_label=gr_2






<region>
sample=Sum_SHTrumpet_stac_A#3_v1_rr2.wav
lokey=69
hikey=71
pitch_keycenter=70
lovel=0
hivel=41
volume=23


<region>
sample=Sum_SHTrumpet_stac_A2_v1_rr2.wav
lokey=55
hikey=58
pitch_keycenter=57
lovel=0
hivel=41
volume=23


<region>
sample=Sum_SHTrumpet_stac_A4_v1_rr2.wav
lokey=79
hikey=82
pitch_keycenter=81
lovel=0
hivel=41
volume=23


<region>
sample=Sum_SHTrumpet_stac_C3_v1_rr2.wav
lokey=59
hikey=61
pitch_keycenter=60
lovel=0
hivel=41
volume=23


<region>
sample=Sum_SHTrumpet_stac_C5_v1_rr2.wav
lokey=83
hikey=84
pitch_keycenter=84
lovel=0
hivel=41
volume=23


<region>
sample=Sum_SHTrumpet_stac_D#3_v1_rr2.wav
lokey=62
hikey=63
pitch_keycenter=63
lovel=0
hivel=41
volume=23


<region>
sample=Sum_SHTrumpet_stac_D4_v1_rr2.wav
lokey=72
hikey=75
pitch_keycenter=74
lovel=0
hivel=41
volume=23


<region>
sample=Sum_SHTrumpet_stac_F2_v1_rr2.wav
lokey=52
hikey=54
pitch_keycenter=53
lovel=0
hivel=41
volume=23


<region>
sample=Sum_SHTrumpet_stac_F3_v1_rr2.wav
lokey=64
hikey=65
pitch_keycenter=65
lovel=0
hivel=41
volume=23


<region>
sample=Sum_SHTrumpet_stac_F4_v1_rr2.wav
lokey=76
hikey=78
pitch_keycenter=77
lovel=0
hivel=41
volume=23


<region>
sample=Sum_SHTrumpet_stac_G3_v1_rr2.wav
lokey=66
hikey=68
pitch_keycenter=67
lovel=0
hivel=41
volume=23


<region>
sample=Sum_SHTrumpet_stac_A#3_v2_rr2.wav
lokey=69
hikey=71
pitch_keycenter=70
lovel=42
hivel=83
volume=14


<region>
sample=Sum_SHTrumpet_stac_A2_v2_rr2.wav
lokey=55
hikey=58
pitch_keycenter=57
lovel=42
hivel=83
volume=14


<region>
sample=Sum_SHTrumpet_stac_A4_v2_rr2.wav
lokey=79
hikey=82
pitch_keycenter=81
lovel=42
hivel=83
volume=14


<region>
sample=Sum_SHTrumpet_stac_C3_v2_rr2.wav
lokey=59
hikey=61
pitch_keycenter=60
lovel=42
hivel=83
volume=14


<region>
sample=Sum_SHTrumpet_stac_C5_v2_rr2.wav
lokey=83
hikey=84
pitch_keycenter=84
lovel=42
hivel=83
volume=14


<region>
sample=Sum_SHTrumpet_stac_D#3_v2_rr2.wav
lokey=62
hikey=63
pitch_keycenter=63
lovel=42
hivel=83
volume=14


<region>
sample=Sum_SHTrumpet_stac_D4_v2_rr2.wav
lokey=72
hikey=75
pitch_keycenter=74
lovel=42
hivel=83
volume=14


<region>
sample=Sum_SHTrumpet_stac_F2_v2_rr2.wav
lokey=52
hikey=54
pitch_keycenter=53
lovel=42
hivel=83
volume=14


<region>
sample=Sum_SHTrumpet_stac_F3_v2_rr2.wav
lokey=64
hikey=65
pitch_keycenter=65
lovel=42
hivel=83
volume=14


<region>
sample=Sum_SHTrumpet_stac_F4_v2_rr2.wav
lokey=76
hikey=78
pitch_keycenter=77
lovel=42
hivel=83
volume=14


<region>
sample=Sum_SHTrumpet_stac_G3_v2_rr2.wav
lokey=66
hikey=68
pitch_keycenter=67
lovel=42
hivel=83
volume=14


<region>
sample=Sum_SHTrumpet_stac_A#3_v3_rr2.wav
lokey=69
hikey=71
pitch_keycenter=70
lovel=84
hivel=127
volume=5


<region>
sample=Sum_SHTrumpet_stac_A2_v3_rr2.wav
lokey=55
hikey=58
pitch_keycenter=57
lovel=84
hivel=127
volume=5


<region>
sample=Sum_SHTrumpet_stac_A4_v3_rr2.wav
lokey=79
hikey=82
pitch_keycenter=81
lovel=84
hivel=127
volume=5


<region>
sample=Sum_SHTrumpet_stac_C3_v3_rr2.wav
lokey=59
hikey=61
pitch_keycenter=60
lovel=84
hivel=127
volume=5


<region>
sample=Sum_SHTrumpet_stac_C5_v3_rr2.wav
lokey=83
hikey=84
pitch_keycenter=84
lovel=84
hivel=127
volume=5


<region>
sample=Sum_SHTrumpet_stac_D#3_v3_rr2.wav
lokey=62
hikey=63
pitch_keycenter=63
lovel=84
hivel=127
volume=5


<region>
sample=Sum_SHTrumpet_stac_D4_v3_rr2.wav
lokey=72
hikey=75
pitch_keycenter=74
lovel=84
hivel=127
volume=5


<region>
sample=Sum_SHTrumpet_stac_F2_v3_rr2.wav
lokey=52
hikey=54
pitch_keycenter=53
lovel=84
hivel=127
volume=5


<region>
sample=Sum_SHTrumpet_stac_F3_v3_rr2.wav
lokey=64
hikey=65
pitch_keycenter=65
lovel=84
hivel=127
volume=5


<region>
sample=Sum_SHTrumpet_stac_F4_v3_rr2.wav
lokey=76
hikey=78
pitch_keycenter=77
lovel=84
hivel=127
volume=5


<region>
sample=Sum_SHTrumpet_stac_G3_v3_rr2.wav
lokey=66
hikey=68
pitch_keycenter=67
lovel=84
hivel=127
volume=5


